<?xml version="1.0" standalone="no"?><!DOCTYPE svg PUBLIC "-//W3C//DTD SVG 1.1//EN" "http://www.w3.org/Graphics/SVG/1.1/DTD/svg11.dtd"><svg class="icon" width="32px" height="32.00px" viewBox="0 0 1024 1024" version="1.1" xmlns="http://www.w3.org/2000/svg"><path d="M511.507035 848.09094c-74.549057 0-149.098115 0.477063-223.615368-0.159021-61.350312-0.508867-111.950803-53.558282-114.685965-119.679225-1.144951-28.051309-0.922322-56.166227-0.890517-84.217535 0.159021-141.49691 0.413455-282.993819 0.699692-424.458925 0.063608-26.174861 9.700283-31.899618 33.171786-19.718608 5.120477 2.671553 9.477653 5.565736 15.615865 0.60428 25.316147-20.513712 55.402926-24.966301 86.825481-24.966301 142.037581 0.095413 284.075162-0.031804 426.080939 0.127217 25.443364 0.031804 49.169301 7.155946 69.778427 22.23114 7.473988 5.470323 12.721682 6.329037 20.895363 1.335776 20.163866-12.276423 30.913688-6.010995 30.945491 17.237879 0.254434 162.646706 0.349846 325.293412 0.763301 487.940119 0.095413 35.588906-3.307637 69.778427-27.351616 98.656645-25.793211 30.945492-58.933193 45.416405-98.815666 45.416405-73.149672 0.031804-146.26754 0-219.417213 0v-0.349846z" fill="#123450" /><path d="M191.620337 731.782961c31.199925-80.909898 76.902569-147.921359 165.92254-173.523744 4.00733-1.144951 8.39631-1.685623 12.530857-1.399385 21.372426 1.462993 42.045159-2.099078 62.590676-7.41038 14.439109-3.752896 27.574246-1.717427 40.645774 6.869708 43.158307 28.401155 52.317918 27.82868 91.309874-5.883778 7.760226-6.710687 13.803025-7.314967 22.676398-3.911917 26.715533 10.240954 54.289779 13.453179 82.595522 7.855639 9.096003-1.81284 17.651334-0.254434 26.238469 3.530266 57.979066 25.506973 94.681119 71.24142 121.587477 126.580738 6.424449 13.230549 9.318632 28.114918 19.050719 39.818865 3.498463 4.229959 0.031804 9.127807-0.318042 13.739417-12.371836 40.932012-71.24142 75.439575-112.109824 75.121533-119.615616-0.954126-239.263037-0.349846-358.878653-0.318042-19.050719 0-38.101438-0.222629-57.183961 0.063608-40.454949 0.60428-71.941113-17.937572-98.911079-46.084294-9.445849-9.859304-14.184676-22.199335-17.746747-35.048234z" fill="#C48E7B" /><path d="M191.143274 212.102246C233.156629 235.828183 273.039103 258.250148 312.857968 280.831133c56.007206 31.740597 112.332453 62.972327 167.767183 95.730658 24.107588 14.21648 45.257384 14.311892 69.619406 0.127217 92.613846-53.84452 185.990993-106.416871 279.081902-159.434481 2.258099-1.272168 4.61161-2.353511 7.155946-3.62568 4.675218 5.406715 2.289903 11.41771 2.321707 16.760817 0.254434 36.034165-0.413455 72.068329 0.445259 108.070689 0.286238 12.276423-3.498463 15.011585-15.234214 14.693543-41.313663-1.144951-82.65913-0.699693-123.972793-1.876448-16.347362-0.445259-31.072709 2.894183-45.639034 9.954716-34.157717 16.601795-68.633475 32.503898-102.918409 48.914868-6.329037 3.0214-9.827499 3.593875-15.138802-3.434854-12.276423-16.220145-32.249464-15.584061-43.889803 1.431189-5.438519 7.919247-9.191415 5.724757-15.234215 2.830575-38.133242-18.096593-76.393701-35.906948-114.495139-54.098954-8.332702-3.975526-16.633599-5.82017-25.920427-5.629344-44.494083 0.826909-89.019971 0.826909-133.514054 1.876448-9.859304 0.222629-12.530857-2.41712-12.40364-12.276423 0.540671-41.82253 0.254434-83.676864 0.254433-128.743423zM192.033792 404.931143c16.251949 11.163276 30.850079 21.372426 45.639035 31.263534 3.657484 2.448924 4.516197 5.438519 4.166351 9.414044-3.816505 44.144237 22.644594 69.269559 56.611485 89.338013 9.032394 5.343107 19.018915 9.00059 29.927757 14.089263-63.194956 26.524707-105.971612 72.672609-136.376432 136.312824 0.031804-95.317203 0.031804-186.531664 0.031804-280.417678zM838.645091 403.8498v281.34c-29.736932-61.191291-66.85244-110.519614-127.503059-140.192937 10.558996-6.20182 20.163866-11.067863 28.910023-17.110662 28.496568-19.654999 48.087959-44.684909 45.702643-81.641396-0.349846-5.565736 1.431189-8.332702 6.106407-11.290492 15.043389-9.477653 29.705128-19.654999 46.783986-31.104513z" fill="#FFFFFF" /><path d="M191.620337 731.782961c19.654999 39.02376 50.44147 63.862844 92.86828 75.121533 6.488058 1.717427 12.308227 1.176756 18.255614 1.176756 136.503649 0.286238 273.007299-0.349846 409.479144 0.572476 53.272044 0.349846 91.977762-22.135727 119.64742-66.311769 1.081343-1.717427 3.0214-2.862378 4.579806-4.261763 0.222629 38.514893-35.175451 80.305619-75.757617 88.988166-8.205485 1.749231-16.697208 3.212225-25.061714 3.212225-147.69873 0.190825-295.365655 0.38165-443.064385 0-53.876324-0.159021-98.783862-44.716713-100.946548-98.497624z" fill="#956C5E" /><path d="M774.686834 425.095009c-24.870889-4.929652-45.639035-8.650744-66.216355-13.294158-12.181011-2.766966-23.439699-2.607945-35.398081 1.81284-35.588906 13.166941-71.464049 25.570581-107.370997 37.847004-4.802435 1.653819-12.244619 8.650744-14.788956-2.894183-1.622014-7.41038-8.364506-15.106998 4.484393-20.863558 39.977886-17.905768 79.478709-36.892878 119.043141-55.689164 5.056869-2.41712 10.113737-2.671553 15.393235-2.639749 45.002951 0.286238 90.037705 0.477063 135.040656 0.954126 4.802435 0.063608 11.544927-2.671553 13.6122 4.452589 2.067273 7.18775-3.975526 10.018325-8.873373 13.230549-15.902103 10.463584-31.676989 21.117992-47.610896 31.486164-3.371246 2.289903-6.488058 5.883778-7.314967 5.59754zM278.795664 370.137342c41.631705-8.205485 86.952697 3.371246 130.0792 28.178526 20.990776 12.053794 43.539957 21.531447 65.834705 31.104513 12.085598 5.184085 5.152281 12.530857 3.975526 19.336957-1.59021 9.159611-7.219555 6.392645-13.039724 4.325372-31.83601-11.226884-64.276299-21.02258-95.476225-33.744262-21.467839-8.746156-42.649439-13.262354-64.117278-4.83424-37.719788 14.788955-69.587601 6.615275-97.829736-20.672733-6.010995-5.82017-19.845824-6.996925-16.442774-18.319222 3.466658-11.544927 15.488648-4.516197 23.407895-5.025065 18.510048-1.144951 37.083703-0.349846 63.608411-0.349846zM555.93751 531.289251c0.349846 2.19449-2.258099 5.438519-5.979191 7.823834-9.763891 6.297233-19.686803 12.340032-29.450694 18.669069-4.834239 3.116812-8.841569 1.144951-13.262354-1.144952-35.557102-18.60546-35.525297-18.541852-24.107587-57.533807 6.965121-23.789546 13.421375-47.738112 20.609125-71.432246 1.685623-5.59754 2.003665-13.421375 10.781625-13.675808 8.746156-0.222629 9.382241 6.837904 11.163276 12.912508 9.096003 30.850079 18.287418 61.668354 27.383421 92.518433 0.890518 2.989595 1.494798 6.138212 2.862379 11.862969z" fill="#CECBCA" /><path d="M290.340591 435.781222c-9.509457 34.761996-0.413455 57.311178 29.959561 74.517253 30.086778 17.047054 61.827375 20.79995 94.426686 8.01466 18.382831-7.219555 30.40482-20.513712 33.20359-40.900208 0.60428-4.516197-1.303972-12.785291 7.696618-8.523527 5.661149 2.671553 17.01525-0.127217 13.325962 14.057458-9.064199 35.048234-22.103923 48.469609-62.145417 53.971737-42.331397 5.82017-82.05485-2.607945-116.785042-28.878219-13.707613-10.368171-24.648259-23.121657-29.387086-40.200515-5.59754-20.132062-2.671553-25.093518 17.174271-29.164456 3.562071-0.763301 7.124142-1.653819 12.530857-2.894183z" fill="#CDCAC9" /><path d="M578.5503 467.07656c-0.731497 28.083113 13.675808 44.971146 38.069634 52.858589 39.278194 12.689878 75.407771 5.21589 106.353262-22.103922 18.478243-16.283753 21.62686-34.316738 13.580396-60.173557 3.053204-2.130882 6.074603-0.60428 9.096003 0.063608 22.962636 4.961456 28.051309 15.011585 17.905767 37.497159-9.795695 21.690468-27.2244 36.256794-48.056154 46.370531-38.101438 18.510048-77.761282 23.026245-118.407057 9.414045-22.644594-7.569401-37.878809-29.546107-36.98829-52.826785 0.445259-11.258689 11.004255-8.110072 18.446439-11.099668z" fill="#CECBC9" /><path d="M621.644998 451.333478c2.957791 27.128987 11.831164 40.423145 28.687393 44.557692 14.788955 3.625679 32.21766-2.41712 40.550362-15.170606 11.41771-17.428705 7.760226-34.094108-4.643414-49.83719 15.234214-1.367581 30.40482 6.678883 34.825605 18.796286 4.802435 13.198745 0.190825 23.884958-10.431779 32.21766-26.238469 20.577321-55.911793 26.333882-88.224866 19.654999-4.039134-0.826909-7.887443-2.957791-11.544927-4.993261-10.431779-5.788365-14.184676-14.916172-13.262353-26.62012 1.176756-14.59813 13.262354-14.152871 24.043979-18.60546zM341.259124 429.674814c-10.272758 13.803025-15.933907 26.938162-9.922913 42.64944 6.233624 16.347362 21.976706 25.984036 40.295929 24.139392 15.647669-1.558406 29.323477-14.788955 32.472093-30.436625 0.922322-4.516197-3.498463-13.294158 3.784701-12.880703 8.110072 0.445259 18.478243 2.353511 20.990775 13.516787 2.576141 11.41771-0.636084 20.768146-10.145541 27.955897-26.461099 20.004845-93.440755 6.869708-110.86946-21.817685-11.958381-19.591391 3.339442-41.027425 33.394416-43.126503z" fill="#EA5B5A" /><path d="M386.071249 460.143243c-0.540671 10.463584-6.551666 17.3969-18.22381 18.446439-11.163276 1.017735-20.831755-7.855639-20.640929-18.891698 0.222629-11.672143 6.837904-18.573656 18.22381-19.909432 10.495388-1.240364 20.386496 8.428114 20.640929 20.354691z" fill="#FCFDFD" /><path d="M660.064478 478.144423c-12.053794 0-18.22381-7.124142-19.623195-18.128397-1.335777-10.463584 8.650744-20.100258 19.623195-20.291083 10.845234-0.190825 20.259279 9.350436 19.877628 20.163867-0.349846 9.954716-9.22322 18.096593-19.877628 18.255613z" fill="#FBFBFC" /><path d="M516.245861 722.305308c6.360841 0 12.721682 0.318042 19.050719-0.095413 7.028729-0.445259 9.096003 2.639749 9.032395 9.318633-0.063608 6.424449-1.717427 9.827499-8.905178 9.636674-12.689878-0.349846-25.41156-0.222629-38.133242-0.063609-6.901513 0.095413-9.127807-3.562071-9.509457-9.827499-0.445259-7.060534 2.735162-9.414045 9.414044-9.064199 6.329037 0.349846 12.689878 0.095413 19.050719 0.095413z" fill="#193651" /></svg>