<?xml version="1.0" standalone="no"?><!DOCTYPE svg PUBLIC "-//W3C//DTD SVG 1.1//EN" "http://www.w3.org/Graphics/SVG/1.1/DTD/svg11.dtd"><svg class="icon" width="200px" height="200.00px" viewBox="0 0 1024 1024" version="1.1" xmlns="http://www.w3.org/2000/svg"><path fill="#515151" d="M846.36 725.26H354.987c-13.794 0-26.936-12.446-28.706-27.184l-51.509-362.723-29.127-168.118c-5.295-43.37-43.4-77.285-86.786-77.285h-38.54c-15.87 0-28.78 12.91-28.78 28.778s12.91 28.779 28.78 28.779h38.54c14.303 0 27.967 12.851 29.852 28.053l29.185 168.727 51.305 361.272c5.25 43.314 42.922 77.227 85.785 77.227h491.371c15.87 0 28.779-12.91 28.779-28.778 0.002-15.84-12.908-28.749-28.778-28.749z"  /><path fill="#515151" d="M914.564 207.27c-15.144-17.146-36.002-26.575-58.69-26.575h-523.79c-15.87 0-28.778 12.91-28.778 28.779s12.91 28.778 28.778 28.778h523.79c6.18 0 11.431 2.408 15.608 7.137 6.209 7.02 9.37 18.538 8.065 29.358l-47.665 272.731c-1.769 14.534-15.637 26.516-30.896 26.603L390.7 604.339c-7.658 0.552-14.62 4.033-19.64 9.864-5.034 5.802-7.484 13.229-6.92 20.887 1.088 14.97 13.679 26.69 28.663 26.69 0.682 0 1.407-0.028 2.118-0.087l408.154-30.17c42.936 0 80.535-33.218 85.698-75.603l47.694-272.73c3.452-28.604-4.526-56.309-21.903-75.92zM362.821 934.05c32.536 0 59.023-26.488 59.023-59.009 0-32.55-26.488-59.037-59.023-59.037S303.8 842.49 303.8 875.04c0 32.522 26.486 59.008 59.022 59.008zM786.365 934.05c32.521 0 59.008-26.488 59.008-59.009 0-32.55-26.488-59.037-59.008-59.037-32.55 0-59.037 26.487-59.037 59.037 0 32.522 26.486 59.008 59.037 59.008z"  /></svg>