<?xml version="1.0" standalone="no"?><!DOCTYPE svg PUBLIC "-//W3C//DTD SVG 1.1//EN" "http://www.w3.org/Graphics/SVG/1.1/DTD/svg11.dtd"><svg class="icon" width="32px" height="32.00px" viewBox="0 0 1024 1024" version="1.1" xmlns="http://www.w3.org/2000/svg"><path d="M212.865546 817.781532c-35.684318-26.683728-52.604156-63.385781-52.826785-106.893934-0.699693-132.49632-0.763301-264.992639-0.063608-397.488958 0.413455-77.220611 58.551542-136.471845 135.644936-137.076125 137.26695-1.049539 274.533901-1.017735 411.800851-0.031805 78.111128 0.572476 135.644936 60.078144 135.803957 138.030252 0.254434 131.955648 0.286238 263.9431-0.031804 395.898748-0.127217 46.402336-18.60546 83.994906-57.056745 111.028481-3.816505-7.028729 1.622014-11.290493 5.59754-14.725347 33.108178-28.560176 41.568096-67.23409 45.034755-108.07069 0.477063-5.629344 2.321707-11.163276 1.303972-16.919837-0.159021-2.130882-3.466658 0.413455-1.431189-0.22263 0.922322-0.286238 1.462993-0.031804 1.367581 0.763301-1.240364 12.467249 0.349846 25.443364-5.056869 37.21092-1.971861 4.261764-3.40305 12.880703-11.608535 5.533932-3.339442-8.714352-2.289903-17.810355-2.289902-26.747337-0.063608-126.580737-1.717427-253.193279 0.667888-379.710407 1.20856-63.608411-45.893468-119.901854-119.87005-120.188092-90.546573-0.318042-181.12495-0.063608-271.671522-0.095413-40.264124 0-80.496444-0.159021-120.760568 0.031804-75.980247 0.413455-124.163618 48.660434-124.227226 124.545268-0.095413 124.449856 0 248.899711-0.063609 373.381371 0 8.428114 0.890518 16.983446-2.067273 25.157127-6.424449 7.633009-8.841569 0.763301-10.431779-3.593875-3.339442-9.382241-3.975526-19.305153-3.562071-26.174861 1.272168 39.40541 8.682548 79.542318 40.00969 111.569152 3.721092 3.848309 9.286828 7.760226 5.788365 14.788955z" fill="#133450" /><path d="M212.865546 817.781532c-2.894183-9.700283-12.117402-14.21648-17.873963-21.626859-26.111253-33.521632-33.044569-71.686679-27.987701-112.968538 1.653819 14.280088 3.0214 28.655589 10.972451 41.186446 6.678883 4.102742 7.251359 11.41771 9.573066 17.84216 4.357176 20.100258 16.347362 36.00236 28.623785 51.650029 0.38165-4.38898-3.180421-9.127807 0.858713-13.38957 10.177346-1.431189 16.569991 5.788365 24.075784 10.527192 1.240364 1.335777 2.321707 2.766966 3.371246 4.261763 13.039724 20.513712 31.168121 29.577911 55.911793 29.482498 133.959313-0.540671 267.918626-0.38165 401.909743-0.127216 24.043979 0.031804 43.667174-6.965121 56.388856-28.464764 1.049539-2.512532 2.607945-4.643414 4.579805-6.488058 6.837904-4.484393 13.357766-9.732087 22.326553-8.873373 3.085008 2.894183 2.957791 6.424449 1.59021 12.021989 15.011585-16.538187 25.252539-33.680653 30.532037-53.685498 1.526602-4.325372 2.19449-9.127807 6.837904-11.576731 11.099668-15.106998 8.364506-33.998696 14.280088-50.505078 1.908252 49.296518-3.0214 96.334938-43.603565 131.796627-3.848309 3.339442-8.555331 6.488058-9.127807 12.40364-23.026245 17.428705-49.137497 26.810945-77.824891 26.874553-138.030251 0.349846-276.060503 0.445259-414.058949-0.095412-30.341212-0.095413-57.85185-10.463584-81.355158-30.2458z" fill="#0D273D" /><path d="M184.178153 743.582321c-2.067273-6.392645-4.134547-12.785291-6.233624-19.177935l0.286238-406.743983c0.031804-71.909308 50.250644-123.495729 122.44619-123.781967 134.531789-0.572476 269.063577-0.508867 403.595367-0.095413 69.714818 0.222629 120.347113 51.809051 120.474329 122.28717 0.222629 137.171538-0.095413 274.343075-0.190825 411.514613-1.335777 4.229959-2.639749 8.428114-3.975525 12.658074-5.374911 13.262354-12.880703 25.093518-24.171197 34.062304-3.625679 2.862378-7.505792 8.714352-13.00792 2.099077-2.925987-7.124142-2.035469-14.59813-2.067273-21.976706-0.095413-49.23291-1.399385-98.497624 0.381651-147.666925 1.431189-39.150977-32.980961-48.819455-56.452465-32.44029-15.138802 10.558996-31.390751 19.623195-47.165637 29.355282-11.067863 6.837904-21.308818 7.314967-32.853744 1.335777-24.457434-12.62627-49.455539-24.171196-73.690343-37.210921-17.683138-9.509457-34.380346-10.081933-50.473274 2.321707-12.721682 9.827499-24.902693 9.732087-37.783396 0.508868-17.842159-12.785291-35.684318-12.244619-55.021276-1.781036-20.450104 11.067863-41.122838 21.913097-61.477529 33.108178-17.587726 9.668478-32.503898 8.714352-48.660434-2.385316-12.62627-8.682548-25.825015-16.601795-39.055564-24.362021-33.076374-19.400565-57.756437-5.692953-58.138087 32.917353-0.477063 48.692238-0.063608 97.384477-0.159021 146.108519 0 7.378576 0.858714 14.852564-1.940057 21.976706-5.374911 6.837904-9.350436 1.017735-13.135137-1.844644-10.431779-7.919247-15.488648-19.718607-21.531447-30.786471z" fill="#EA5B5A" /><path d="M239.612883 793.928378c-0.60428-0.890518-1.176756-1.781036-1.781035-2.671553-5.59754-4.38898-6.647079-10.527192-6.647079-17.078858-0.127217-57.215765-0.286238-114.463335 0.095412-171.679101 0.031804-7.028729 1.494798-13.803025 6.233625-19.273348 8.332702-9.636674 18.255614-9.445849 28.751001-4.070938 18.414635 9.414045 35.652514 20.895363 53.113023 31.931422 15.647669 9.891108 30.62745 10.304563 46.465944 1.749231 22.835419-12.340032 45.734447-24.552847 69.015126-36.065969 15.075193-7.442184 29.291673-8.332702 43.349132 1.908253 15.106998 11.004255 30.977296 11.226884 45.82986 0.508867 16.506383-11.894773 31.168121-10.718017 48.278783-0.413455 21.754076 13.071528 45.480014 22.771811 67.901979 34.698388 14.725347 7.823835 28.146722 6.774296 42.013355-1.685623 17.174271-10.495388 34.348542-21.02258 51.872659-30.945491 20.19567-11.481318 36.384011-2.766966 36.670249 20.513712 0.699693 57.756437 0.286238 115.512874 0.222629 173.269311 0 5.915582-0.540671 11.672143-4.643414 16.442774l-3.085008 3.18042c-7.887443 10.622605-19.750412 13.453179-31.676988 16.124733-7.79203 1.749231-15.743082 1.685623-23.694133 1.685622-136.980712 0.031804-273.993229 0.063608-410.973942-0.031804-20.958971-0.031804-41.504488-1.685623-57.311178-18.096593z" fill="#FBDBCB" /><path d="M766.290524 791.066c3.275833-64.05367 1.049539-128.170948 1.240364-192.256421 0.063608-18.128397-13.38957-24.648259-29.577911-15.266019-18.255614 10.622605-36.415815 21.499643-54.130758 32.980961-14.757151 9.573066-29.387086 9.763891-44.557691 1.940056-25.793211-13.294158-51.745442-26.39749-77.252415-40.232319-10.527192-5.724757-19.909433-6.488058-29.323477 1.208559-20.640929 16.888033-41.091033 16.983446-61.85918 0-9.286828-7.601205-19.114327-6.647079-29.514302-1.113147-25.602385 13.644004-51.618225 26.524707-77.252415 40.136907-14.979781 7.951051-29.005435 7.855639-43.412741-1.36758a1676.59049 1676.59049 0 0 0-55.402925-33.966892c-15.552256-9.127807-29.450694-1.781036-29.546107 16.092928-0.349846 59.346647-0.127217 118.693294 0.031804 178.039942 0 4.675218 1.399385 9.382241 2.130882 14.057459-7.887443-0.636084-12.594465-7.728422-19.81402-9.668479-2.19449-0.254434-2.766966-1.367581-1.717427-3.307637 0.190825-56.611486 0.636084-113.254775 0.445259-169.866261-0.063608-17.301488 2.19449-33.362611 18.669068-42.522223 16.856229-9.382241 32.344877-3.657484 47.356462 6.265429 14.979781 9.922912 30.818275 18.510048 45.766252 28.464764 9.445849 6.297233 17.842159 6.742492 27.924092 1.303972 25.061714-13.580396 50.759512-25.984036 75.85303-39.532627 17.047054-9.22322 33.458024-10.272758 48.787651 2.162686 14.121067 11.449514 26.842749 11.767556 41.059229 0.127217 15.870298-12.976116 32.82194-11.290493 50.21884-1.844644 25.093518 13.580396 50.695903 26.174861 75.85303 39.62804 8.905178 4.770631 16.538187 4.579806 25.093518-0.985931 16.824425-10.940647 34.348542-20.831755 51.236575-31.676988 13.930242-8.936982 28.305743-12.053794 43.253719-3.943722 14.757151 7.982856 18.319222 21.563251 18.22381 37.624375-0.349846 58.201696 0.063608 116.435196 0.190825 174.636892 0.636084 1.494798 0.254434 2.639749-1.144951 3.466658-6.297233 3.085008-12.562661 6.233624-18.82809 9.414045z" fill="#133450" /><path d="M239.612883 793.928378c20.831755 9.98652 42.681244 13.6122 65.898314 13.548592 131.128739-0.477063 262.257477-0.477063 393.354412 0 22.676398 0.095413 44.048824-3.244029 64.339907-13.262354-8.936982 23.59872-26.715533 34.921017-51.236575 34.952822-140.28835 0.222629-280.608504 0.190825-420.896854 0.063608-24.934497 0-41.599901-12.848899-51.459204-35.302668z" fill="#BDA599" /><path d="M785.086809 781.588347c0.38165-1.144951 0.763301-2.321707 1.144952-3.466659 14.693543-9.668478 24.043979-24.234804 34.380346-37.878808-4.675218 24.043979-17.905768 42.80846-37.465354 61.477529 0.795105-8.650744 1.367581-14.407305 1.940056-20.132062z" fill="#B74544" /><path d="M216.300401 778.280709c0.572476 1.113147 1.144951 2.19449 1.717427 3.307638 0.890518 5.629344 1.749231 11.258689 3.275833 21.117992-19.336957-18.319222-32.631115-35.811535-37.115508-59.124018 10.622605 11.640339 18.287418 26.01584 32.122248 34.698388z" fill="#B54544" /><path d="M458.107774 466.376867c0-8.587135 0.318042-14.852564-0.095413-21.086188-0.445259-6.901513 0.890518-10.749821 9.286828-10.5908 7.473988 0.127217 10.527192 2.162686 9.986521 9.922912-0.540671 7.919247-0.095413 15.902103-0.063609 23.853154 0 4.834239 1.653819 8.237289 7.219555 8.269093 5.343107 0 7.728422-3.148616 7.887443-7.951051 0.286238-7.951051 0.572476-15.902103 0.127217-23.82135-0.413455-7.41038 2.003665-10.20915 9.795695-10.20915 7.855639 0 10.240954 2.925987 9.763891 10.272759-0.445259 6.869708-0.159021 13.771221-0.063608 20.672733 0.095413 5.184085-0.890518 11.481318 7.314967 11.131472 7.41038-0.318042 7.601205-6.170016 7.728422-11.544927 0.190825-6.360841 0.127217-12.721682 0.063608-19.082523-0.063608-6.042799-0.508867-11.385906 8.587136-11.449514 8.555331-0.063608 9.509457 4.134547 9.223219 10.81343-0.286238 6.170016-0.063608 12.340032-0.063608 19.495978 19.591391-4.579806 35.493493-14.121067 51.999876-22.167531 42.681244-20.831755 86.66646-36.956487 135.008851-36.384011 11.576731 0.127217 23.248874 1.462993 34.698388 3.371246 15.870298 2.639749 24.012175 16.220145 17.61953 30.627449-33.80787 76.202876-103.013821 116.530608-184.718825 99.801597-25.570581-5.247694-45.734447-19.114327-58.646954-42.267789-3.0214-5.406715-5.056869-5.247694-11.576731-4.420785-17.746747 2.19449-36.065969 2.162686-53.876324 0.413455-6.837904-0.667888-9.668478-1.144951-13.325962 5.056869-16.729012 28.305743-42.903873 41.790726-74.771687 44.080628-76.202876 5.470323-134.722614-29.832345-166.558623-99.515358-7.537597-16.538187-2.925987-27.319812 14.566326-32.313073 36.574836-10.463584 72.386371-3.816505 107.816256 6.074603 26.588316 7.41038 51.331987 19.464174 75.948442 31.740597 12.212815 5.915582 24.902693 10.940647 39.119173 17.206075z" fill="#123450" /><path d="M262.321086 284.838463c-10.050129 17.110662-10.940647 33.935087-6.20182 50.568687 2.703357 9.509457-0.508867 12.244619-8.555331 14.311892-10.240954 2.639749-7.951051-5.438519-9.350437-10.240954-11.067863-38.101438 8.968786-68.124608 26.047644-102.822996 3.434854 11.004255 5.406715 18.82809 8.300898 26.270274 9.445849 24.393826 28.941827 38.610305 51.777246 48.533217 9.064199 3.943721 8.173681 8.428114 5.21589 15.647669-4.102742 10.050129-9.318632 2.989595-13.516787 1.049539-20.863559-9.668478-39.40541-22.485573-53.717303-43.317328zM737.82576 234.460602c17.810355 35.557102 37.719788 65.198621 28.21033 102.663975-1.303972 5.120477 0.095413 14.248284-10.240954 12.308227-6.774296-1.272168-11.672143-3.434854-8.650744-12.530857 5.692953-17.174271 4.357176-34.0305-6.042799-51.777246-14.534522 20.640929-33.744262 34.0305-55.43473 43.953412-3.466658 1.59021-8.714352 7.124142-11.226884-1.20856-1.462993-4.866043-7.155946-10.527192 1.81284-14.534522 32.694723-14.566326 56.675094-36.638445 61.572941-78.874429z" fill="#153450" /><path d="M502.061186 761.233655c-8.491723 0-16.983446-0.349846-25.443364 0.095413-7.887443 0.413455-9.763891-3.148616-9.891108-10.399975-0.159021-8.269093 4.707022-7.855639 10.240954-7.823835 16.951641 0.095413 33.935087 0.222629 50.886728-0.063608 6.488058-0.095413 9.668478 1.558406 9.414045 8.873373-0.254434 6.996925-3.371246 9.382241-9.763891 9.318632-8.491723-0.095413-16.951641 0-25.443364 0z" fill="#213A54" /><path d="M275.138181 425.603876c42.204181-0.508867 80.687269 13.38957 118.152622 31.168121 15.234214 7.219555 30.277604 15.075193 45.988881 21.149797 10.431779 4.039134 9.922912 8.332702 4.388981 16.092928-18.287418 25.63419-45.130167 32.281268-73.944778 31.899618-61.922788-0.826909-103.618101-33.076374-130.969717-86.889089-4.38898-8.650744-1.622014-11.131472 6.392645-12.053794 2.607945-0.318042 5.184085-1.176756 7.79203-1.240364 7.41038-0.222629 14.788955-0.127217 22.199336-0.127217zM632.585645 526.136969c-26.492903-1.303972-52.095288-5.756561-70.350903-28.846414-7.314967-9.255024-9.382241-15.043389 4.548002-20.577321 39.087368-15.520452 75.280554-38.165046 117.198496-46.752182 24.552847-5.025064 49.105693-6.710687 73.976582-3.053203 8.141877 1.20856 10.654409 4.039134 6.360841 12.530856-27.319812 53.908128-69.301363 85.330683-131.733018 86.698264z" fill="#EE8181" /></svg>