<?xml version="1.0" standalone="no"?><!DOCTYPE svg PUBLIC "-//W3C//DTD SVG 1.1//EN" "http://www.w3.org/Graphics/SVG/1.1/DTD/svg11.dtd"><svg t="1556448096999" class="icon" style="" viewBox="0 0 1024 1024" version="1.1" xmlns="http://www.w3.org/2000/svg" p-id="2679" xmlns:xlink="http://www.w3.org/1999/xlink" width="200" height="200"><defs><style type="text/css"></style></defs><path d="M723.4 851L382.7 510.2 723.1 169c14.6-14.6 14.6-38.5 0-53.1-14.6-14.6-38.4-14.6-53 0L306.8 480c-1.4 1-2.7 2.2-3.9 3.4-7.4 7.4-11 17.1-10.9 26.8-0.1 9.7 3.6 19.5 10.9 26.8 1.4 1.4 2.8 2.6 4.3 3.7L670.4 904c14.6 14.6 38.4 14.6 53 0 14.6-14.5 14.6-38.4 0-53z" fill="" p-id="2680"></path></svg>