<?xml version="1.0" standalone="no"?><!DOCTYPE svg PUBLIC "-//W3C//DTD SVG 1.1//EN" "http://www.w3.org/Graphics/SVG/1.1/DTD/svg11.dtd"><svg class="icon" width="32px" height="32.00px" viewBox="0 0 1024 1024" version="1.1" xmlns="http://www.w3.org/2000/svg"><path d="M180.457061 478.87592c0-80.528248-0.222629-161.056496 0.095413-241.584744 0.127217-30.373016 7.664813-38.165046 38.19685-43.349132 8.01466-1.367581 14.82076-5.056869 20.481909-11.067863 13.803025-14.788955 31.168121-21.467839 51.172966-21.467839 119.202162-0.031804 238.404323-0.127217 357.606485 0.063609 28.083113 0.031804 53.399261 8.841569 73.43591 28.910022 13.103333 13.135137 28.528372 19.368761 46.338728 21.881294 45.22558 6.424449 76.139268 42.235985 78.015715 87.970432 5.565736 136.599062 2.067273 273.261732 2.512533 409.892598 0.286238 85.553312-59.664689 144.359288-145.186198 144.518309-125.563003 0.222629-251.126006 0.222629-376.657204 0-87.811411-0.127217-145.790477-58.805976-145.790477-146.935428v-228.831258h-0.22263z" fill="#123450" /><path d="M209.33528 762.474019c-7.823835-11.958381-9.922912-25.506973-9.986521-39.309998-0.254434-68.347237-0.222629-136.694475-0.318042-205.041711 0-5.406715-0.318042-10.177346 6.615275-12.467249 33.903283-11.226884 45.480014-36.765661 44.335062-70.287294-0.222629-6.329037-0.031804-12.689878-0.031804-23.916762 16.856229 25.538777 37.369941 40.900208 59.950927 53.939932 7.378576 4.261764 10.622605 2.19449 14.407305-4.61161 3.307637-5.915582 0.508867-7.982856-3.244029-11.513122-15.647669-14.725347-17.651334-20.958971-15.043389-45.066559 18.064789 16.442774 38.546697 26.747337 61.477529 31.899618 6.010995 1.335777 13.198745 7.124142 16.79262-3.816505 2.925987-8.968786-2.003665-11.576731-9.223219-14.59813-14.947977-6.233624-24.616455-17.651334-29.03724-33.521632-2.003665-7.251359-1.462993-10.527192 7.537597-9.382241 20.990776 2.671553 42.045159 4.834239 63.131348 6.519862 8.237289 0.667888 9.318632 4.516197 8.39631 11.41771-1.272168 9.414045-2.099078 18.891698-2.639749 28.401155-0.286238 4.866043-2.035469 10.972451 6.965121 10.749822 6.933317-0.159021 11.036059-0.318042 12.658074-9.445849 3.816505-21.62686 12.785291-30.818275 35.048234-32.344877 57.120353-3.943721 113.541013-11.703948 169.198372-24.998106 28.178526-6.742492 56.579681-12.658074 84.503774-20.386495 9.318632-2.576141 15.488648-0.636084 21.277013 5.438519 14.407305 15.075193 22.453769 33.139982 23.21707 54.067149 0.60428 16.41097-0.572476 32.949157 1.335777 49.201106 3.0214 25.856819 17.492313 43.889803 42.649439 51.840854 7.887443 2.480728 10.399975 5.883778 10.368171 14.184676-0.38165 67.806566-0.190825 135.644936-0.254433 203.451502 0 13.930242-2.862378 27.288008-9.763891 39.564431-24.80728 44.112433-66.057335 58.2335-113.000342 61.286704-18.446439 1.176756-36.988291 0.413455-55.466534 0.159021-5.311302-0.063608-10.5908-0.60428-15.011585-4.134547a12.912507 12.912507 0 0 1-3.116812-4.166351c-3.816505-17.778551-1.622014-35.811535-1.781036-53.749107-0.445259-54.671429-31.708793-92.391217-85.585116-101.550828-19.909433-3.371246-40.200516-3.307637-60.078144-0.318042-51.809051 7.855639-79.097059 36.256794-89.051775 90.960028-3.466658 17.333292-0.98593 34.825605-1.685623 52.254309-0.699693 17.460509-3.275833 20.768146-20.386496 20.863559-24.839084 0.127217-49.61456 1.017735-74.42184-2.703358-39.469019-5.883778-71.082399-22.930832-90.737398-58.869584z" fill="#FBDBCB" /><path d="M788.776097 378.724477c-5.788365-15.965711-12.02199-31.740597-25.379756-43.19011-10.018325-8.587135-20.609125-12.689878-34.698388-9.127807-48.437805 12.244619-97.002826 24.043979-146.108519 33.58524-30.563841 5.915582-61.477529 8.237289-92.295804 10.81343-14.916172 1.240364-29.196261 2.862378-42.935677 9.700283 2.003665-28.114918 17.873963-40.932012 42.935677-34.539367 7.346771 1.876448 10.972451 0.095413 13.135137-6.583471 2.448924-7.664813-3.752896-9.096003-8.364506-10.940646-21.690468-8.650744-46.497748 0.540671-57.533808 23.089853-6.170016 12.62627-13.135137 14.82076-26.270273 11.79936-14.725347-3.40305-30.245799-3.848309-45.44821-4.579806-22.00851-1.049539-24.139392-3.244029-18.987111-23.471503 0.922322-3.562071 1.717427-7.18775 2.735162-10.718017 1.749231-5.947386 5.343107-11.513122-4.707022-14.693543-11.354101-3.593875-11.41771 4.834239-13.00792 10.781625-7.060534 26.556511-10.272758 53.24024 1.081343 80.655465-22.99444-15.552256-27.288008-28.655589-17.969376-52.954002 2.067273-5.406715 5.056869-10.495388 7.537596-15.743081 2.035469-4.261764 4.961456-8.300898-1.36758-12.02199-6.424449-3.7847-11.19508-2.448924-14.693543 3.466658-7.346771 12.371836-12.880703 25.665994-14.184676 40.009691-0.922322 9.954716-0.98593 19.877628-3.18042 29.80054-2.099078 9.509457-5.120477 18.955306-2.894183 30.532037-27.733267-19.909433-30.40482-46.911203-8.936982-68.538062 2.989595-3.0214 5.788365-6.20182 9.032394-8.936982 4.802435-4.039134 4.452589-7.346771 0-11.640339-4.548001-4.357176-7.919247-5.629344-13.325962-0.795105-14.757151 13.198745-25.02991 29.577911-34.761996 46.43414-14.375501 0.508867-28.560176 0.095413-41.059229-8.491723 0.095413-48.087959-3.339442-96.207721 2.385315-144.232072 1.20856-10.177346 5.120477-15.838494 15.615865-15.80669 15.297823 0.063608 27.574246-6.965121 37.974221-17.142466 10.908842-10.686213 23.21707-14.979781 38.546697-14.916173 118.693294 0.38165 237.386589 0.572476 356.079883-0.063608 27.447029-0.159021 49.264714 10.5908 68.124608 28.591981 11.258689 10.718017 23.916762 17.905768 38.991956 19.177935 46.43414 4.00733 72.799826 34.41215 74.135603 79.25608 1.717427 57.692829 0.477063 115.512874 0.508867 173.237507 0 3.244029-0.222629 6.392645-3.275833 8.428114-5.374911-6.170016-4.579806-13.739417-4.61161-21.02258-0.127217-24.171196 0.127217-48.310588-0.127217-72.481784-0.159021-15.997515-1.240364-16.760816-17.492313-15.170606-5.152281 0.508867-10.399975 1.781036-15.20241-1.558406z" fill="#273A50" /><path d="M197.154269 372.363636c13.771221 2.41712 28.178526 1.653819 41.059229 8.491723-10.877038 18.60546-6.392645 39.119173-6.329037 58.805976 0.063608 18.891698-4.897848 34.316738-21.213405 44.653104-8.459919 5.374911-13.930242 5.724757-13.675808-7.633009 0.667888-34.793801 0.190825-69.555797 0.159021-104.317794zM788.776097 378.724477c8.777961-1.558406 17.746747-2.512532 26.302078-4.866043 8.936982-2.448924 12.244619-0.508867 12.053794 9.255024-0.636084 35.270864-0.667888 70.541727-0.890518 105.812591-22.580986-8.746156-31.390751-21.531447-31.867814-44.84393-0.413455-21.881293 2.989595-44.144237-5.59754-65.357642z" fill="#83888D" /><path d="M209.33528 762.474019c21.02258 24.998105 44.971146 45.22558 78.301953 52.190701 31.295338 6.519862 62.84511 4.643414 94.363078 4.961456 8.61894 0.095413 8.237289-5.82017 8.650743-11.862968 1.272168-19.305153-3.180421-38.864739 2.385316-57.979067 5.756561 4.452589 5.406715 11.004255 5.470323 17.142467 0.190825 16.124732 0.60428 32.249464-0.190825 48.374196-0.127217 7.060534 0.890518 14.407305-5.120477 19.941237-28.496568 0.127217-57.02494 1.017735-85.489704 0.22263-41.854334-1.20856-86.253005-34.698388-98.370407-72.990652zM635.95689 816.445756c24.934497 7.124142 50.505078 3.593875 75.566792 2.57614 30.881883-1.272168 59.728298-10.81343 84.344753-31.39075 9.064199-7.601205 13.803025-18.764481 23.789546-25.125322-15.106998 40.709383-57.533807 72.100134-100.024226 72.990651-27.924092 0.572476-55.879989-0.063608-83.835886-0.159021-5.088673-6.360841-5.947386-12.658074 0.159021-18.891698z" fill="#EEBFAB" /><path d="M501.266081 835.146629l-78.810821 0.38165c-3.562071-2.162686-8.905178-2.289903-9.22322-8.141877-0.286238-3.816505 0.413455-7.283163 3.848309-9.60487 17.492313-5.438519 35.461689-2.067273 53.208436-2.57614 11.958381-0.349846 23.535112 0.413455 26.524707-15.138802 0.413455-2.067273 2.735162-2.989595 5.025064-3.053204 5.851974 6.456254 4.516197 14.375501 4.516198 22.040315-0.095413 5.851974 0.031804 11.79936-5.088673 16.092928z" fill="#EEC0AB" /><path d="M606.601609 835.432866c-26.270274-0.063608-52.572351-0.095413-78.842625-0.159021-4.707022-4.643414-4.802435-10.145542-2.957791-15.997515 0.795105-1.844644 2.130882-3.180421 3.943721-3.975526 27.351617 0.222629 54.798646-2.321707 82.086654 1.749232 2.766966 1.240364 4.261764 3.434854 4.707023 6.392645 0.508867 6.583471-4.070938 9.382241-8.936982 11.990185z" fill="#EFC0AC" /><path d="M606.601609 835.432866l7.251359-9.541261c3.562071-14.280088 6.424449-15.520452 21.149796-9.159611l0.954126-0.286238c-0.031804 6.297233-0.095413 12.594465-0.127216 18.891698l-29.228065 0.095412z" fill="#67656E" /><path d="M415.744572 829.199242c2.226294 2.130882 4.452589 4.229959 6.710688 6.360841-9.763891-0.127217-19.495978-0.222629-29.259869-0.349846l0.954126-18.573656c15.80669-6.551666 18.382831-5.056869 21.595055 12.562661z" fill="#66656E" /><path d="M526.868466 819.785197c0.286238 5.152281 0.60428 10.336367 0.890518 15.520453-8.841569-0.031804-17.651334-0.095413-26.492903-0.127217 0.254434-5.120477 0.540671-10.272758 0.795105-15.393236 8.269093-5.883778 16.538187-6.138212 24.80728 0z" fill="#65646D" /><path d="M415.744572 829.199242c-2.289903-12.658074-11.099668-14.025655-21.595055-12.562661-0.349846-22.294748-0.731497-44.589496-1.081343-66.85244 6.933317-57.502003 48.056154-94.617511 105.65357-94.776532 17.905768-0.031804 35.811535-1.240364 53.685499 2.03547 46.783986 8.523527 82.118458 48.914868 82.977172 96.366742 0.38165 21.086188-0.222629 42.235985-0.381651 63.322173-8.459919-0.222629-17.778551-2.41712-21.149796 9.159611l-0.858714-6.265429c-5.279498-6.329037-3.880113-13.99385-4.166351-21.277013-0.636084-16.856229 1.399385-33.839675-2.321707-50.600491-7.79203-35.111843-29.005435-56.834115-64.21269-64.308103-22.135727-4.707022-44.271454-3.880113-65.802901 3.212225-32.21766 10.622605-54.83045 41.345467-56.007206 75.503183-0.445259 13.198745 0 26.461099-0.159021 39.659844-0.095413 6.297233 0.540671 12.848899-4.548001 17.905768 0 3.180421 0 6.329037-0.031805 9.477653z" fill="#696C76" /><path d="M638.533031 539.367519c-0.031804-20.4183 16.665404-37.43355 36.988291-37.687984 21.02258-0.286238 38.41948 17.301488 38.006025 38.355872-0.413455 20.322887-17.810355 37.306333-37.910613 37.020095-20.450104-0.254434-37.051899-17.142467-37.083703-37.687983zM316.292822 538.954064c0.190825-20.768146 16.729012-37.274529 37.242725-37.242724 21.054384 0.031804 37.847004 17.492313 37.306333 38.832934-0.508867 20.481908-17.746747 37.020095-38.03783 36.511228-20.513712-0.508867-36.702053-17.428705-36.511228-38.101438z" fill="#143551" /><path d="M415.776377 819.753393c-1.717427-22.199335-2.19449-44.525888 0.795105-66.534397 5.851974-43.094698 40.105103-73.690344 84.662794-76.298289 13.644004-0.795105 27.383421-1.20856 41.05923 1.908252 41.727117 9.477653 67.583936 37.910613 70.573531 80.560052 1.399385 19.973041 0.159021 40.168711 0.127217 60.237165-22.771811 0-45.511818 0-68.283629 0.031805-5.82017 0-11.703948 0.540671-16.824424-3.148617-1.399385-0.763301-2.894183-1.908252-2.957792-3.371246-0.731497-16.347362-9.827499-19.750412-23.884958-15.679473-5.724757 22.199335-5.724757 22.199335-31.549771 22.199336l-53.717303 0.095412z" fill="#FBDBCB" /><path d="M501.075255 797.458645c4.516197-9.700283 13.262354-6.965121 20.259279-5.661148 8.39631 1.59021 5.533932 9.668478 6.074603 15.456843 0.286238 3.085008 0.349846 6.170016 0.508868 9.255024-0.349846 1.081343-0.699693 2.162686-1.049539 3.275833h-24.775476c-0.349846-7.442184-0.699693-14.884368-1.017735-22.326552z" fill="#686C75" /><path d="M695.653384 539.240302c0.095413 10.749821-9.382241 20.291083-20.163866 19.559586-11.640339-0.763301-18.510048-7.41038-18.573656-19.146131-0.063608-11.608535 6.551666-18.510048 18.160201-19.495978 10.686213-0.922322 20.481908 8.491723 20.577321 19.082523z" fill="#FDFDFE" /><path d="M352.899463 558.863497c-10.877038-0.349846-20.450104-10.240954-18.955307-20.799951 1.59021-11.19508 8.300898-18.287418 20.132062-17.873963 11.703948 0.413455 18.192005 7.601205 18.82809 19.050719 0.667888 11.099668-8.905178 19.973041-20.004845 19.623195z" fill="#FCFDFD" /><path d="M512.270336 765.718048c-7.378576 0-14.788955 0.063608-22.167531 0-5.247694-0.031804-11.544927 0.826909-10.304563-7.569401 0.890518-6.106407 1.176756-12.658074 11.067864-11.004255 14.661739 2.41712 29.577911 2.035469 44.207845-0.286238 10.081933-1.59021 9.668478 4.961456 10.81343 11.131472 1.653819 9.00059-4.802435 7.569401-9.8275 7.664814-7.951051 0.159021-15.870298 0.063608-23.789545 0.063608z" fill="#1C3853" /></svg>